<svg width="26" height="26" viewBox="0 0 26 26" fill="none" xmlns="http://www.w3.org/2000/svg">
<path fill-rule="evenodd" clip-rule="evenodd" d="M4.74976 4.75003V2.97269C4.74976 1.74467 5.74443 0.75 6.97244 0.75H22.5286C23.7552 0.75 24.7499 1.74467 24.7499 2.97269V18.5288C24.7499 19.7555 23.7552 20.7502 22.5272 20.7502H20.7499" fill="#1CA5AE"/>
<path d="M4.74976 4.75003V2.97269C4.74976 1.74468 5.74443 0.75 6.97244 0.75H22.5286C23.7552 0.75 24.7499 1.74468 24.7499 2.97269V18.5288C24.7499 19.7555 23.7552 20.7502 22.5272 20.7502H20.7499" stroke="#1CA5AE" stroke-width="1.5" stroke-linecap="round" stroke-linejoin="round"/>
<path fill-rule="evenodd" clip-rule="evenodd" d="M18.5275 24.75H2.97269C1.74467 24.75 0.75 23.7553 0.75 22.5273V6.9725C0.75 5.74449 1.74467 4.74982 2.97269 4.74982H18.5288C19.7555 4.74982 20.7502 5.74449 20.7502 6.9725V22.5286C20.7502 23.7553 19.7555 24.75 18.5275 24.75Z" fill="#4DCBD3" stroke="#4DCBD3" stroke-width="1.5" stroke-linecap="round" stroke-linejoin="round"/>
<path fill-rule="evenodd" clip-rule="evenodd" d="M15.0825 21.4133H6.41932C6.05128 21.4133 5.75293 21.115 5.75293 20.747V20.2058C5.75732 18.6663 7.00426 17.4194 8.54379 17.415H12.958C14.4975 17.4194 15.7445 18.6663 15.7488 20.2058V20.747C15.7488 21.115 15.4505 21.4133 15.0825 21.4133Z" fill="#FFDD76" stroke="#FFDD76" stroke-width="1.5" stroke-linecap="round" stroke-linejoin="round"/>
<path fill-rule="evenodd" clip-rule="evenodd" d="M10.7508 14.0826C9.28 14.0826 8.08716 12.8914 8.08521 11.4206C8.08326 9.94983 9.27292 8.7554 10.7437 8.75147C12.2144 8.74757 13.4105 9.93563 13.4164 11.4064C13.4192 12.1152 13.1396 12.7959 12.6394 13.2981C12.1392 13.8003 11.4596 14.0826 10.7508 14.0826Z" fill="#FFDD76" stroke="#FFDD76" stroke-width="1.5" stroke-linecap="round" stroke-linejoin="round"/>
</svg>
