<svg width="20" height="20" viewBox="0 0 20 20" fill="none" xmlns="http://www.w3.org/2000/svg">
<path fill-rule="evenodd" clip-rule="evenodd" d="M0.75 8.932C0.75 11.615 2.17 13.977 4.349 15.466C4.348 16.321 4.35 17.473 4.35 18.682L7.881 16.935C8.485 17.051 9.109 17.114 9.75 17.114C14.702 17.114 18.75 13.471 18.75 8.932C18.75 4.393 14.702 0.75 9.75 0.75C4.798 0.75 0.75 4.393 0.75 8.932Z" stroke="#FCFCFC" stroke-width="1.5" stroke-linecap="round" stroke-linejoin="round"/>
<path d="M9.64899 9.96898V9.76198C9.64899 9.08398 10.068 8.71698 10.488 8.43498C10.898 8.15898 11.309 7.79898 11.309 7.13498C11.309 6.21798 10.566 5.47598 9.64999 5.47598C8.73399 5.47598 7.98999 6.21698 7.98999 7.13398" stroke="#FCFCFC" stroke-width="1.5" stroke-linecap="round" stroke-linejoin="round"/>
<path d="M9.64793 12.308C9.56493 12.308 9.49793 12.375 9.49893 12.458C9.49893 12.541 9.56593 12.608 9.64893 12.608C9.73193 12.608 9.79893 12.541 9.79893 12.458C9.79893 12.375 9.73293 12.308 9.64793 12.308" stroke="#FCFCFC" stroke-width="1.5" stroke-linecap="round" stroke-linejoin="round"/>
</svg>
