<svg width="693" height="540" viewBox="0 0 693 540" fill="none" xmlns="http://www.w3.org/2000/svg">
<rect x="90.2167" y="65.0847" width="602.034" height="408.814" rx="17" fill="#F8F8FA"/>
<rect x="103.437" y="81.3559" width="575.593" height="376.271" rx="9" fill="#F0F0F2"/>
<path fill-rule="evenodd" clip-rule="evenodd" d="M456.318 473.898H327.166V521.695L318.013 540H327.166H456.318H464.454L456.318 521.695V473.898Z" fill="url(#paint0_linear_1033_295)"/>
<rect x="121.742" y="100.678" width="258.305" height="332.542" rx="12" fill="#E9E9EA"/>
<rect x="397.335" y="255.254" width="258.305" height="178.983" rx="4" fill="#E9E9EA"/>
<rect x="397.335" y="102.712" width="258.305" height="27.4576" rx="4" fill="#E9E9EA"/>
<rect x="397.335" y="149.492" width="258.305" height="27.4576" rx="4" fill="#E9E9EA"/>
<rect x="305.81" width="278.644" height="358.983" rx="12" fill="#FCFCFC"/>
<path d="M109.539 255.254L109.315 255.97L109.539 255.254ZM379.539 513.051L379.676 513.788L379.539 513.051ZM655.64 235.424L656.374 235.269L655.64 235.424ZM506.177 127.559C505.859 127.825 505.816 128.298 506.081 128.616L510.402 133.801C510.668 134.119 511.141 134.162 511.459 133.897C511.777 133.632 511.82 133.159 511.555 132.841L507.714 128.232L512.323 124.391C512.641 124.125 512.684 123.652 512.419 123.334C512.154 123.016 511.681 122.973 511.363 123.238L506.177 127.559ZM1.45021 327.649C1.57135 327.191 1.69751 326.727 1.8287 326.258L0.384108 325.854C0.251012 326.33 0.122978 326.801 -1.31726e-05 327.266L1.45021 327.649ZM2.65799 323.442C2.94146 322.525 3.2428 321.592 3.56215 320.644L2.14073 320.165C1.81737 321.124 1.51214 322.07 1.2249 322.999L2.65799 323.442ZM4.53666 317.865C4.86497 316.963 5.20886 316.051 5.56842 315.129L4.1711 314.584C3.80735 315.516 3.45941 316.439 3.12717 317.351L4.53666 317.865ZM6.66494 312.411C7.03723 311.517 7.42387 310.617 7.82495 309.711L6.45342 309.104C6.0478 310.02 5.65677 310.93 5.28024 311.834L6.66494 312.411ZM9.04723 307.032C9.45855 306.156 9.88318 305.276 10.3212 304.395L8.97786 303.727C8.53487 304.619 8.10544 305.508 7.68949 306.394L9.04723 307.032ZM11.6555 301.782C12.1079 300.92 12.5731 300.057 13.0512 299.194L11.739 298.467C11.2555 299.34 10.7849 300.213 10.3273 301.085L11.6555 301.782ZM14.503 296.643C14.9934 295.803 15.4961 294.965 16.0111 294.129L14.7341 293.343C14.2128 294.189 13.7041 295.037 13.2079 295.886L14.503 296.643ZM17.5815 291.647C18.1125 290.83 18.6556 290.016 19.2107 289.206L17.9733 288.358C17.4111 289.178 16.8613 290.003 16.3236 290.83L17.5815 291.647ZM20.8973 286.809C21.4689 286.019 22.0523 285.233 22.6475 284.454L21.4553 283.544C20.852 284.334 20.2609 285.13 19.6818 285.93L20.8973 286.809ZM24.4585 282.147C25.0706 281.389 25.6944 280.637 26.3299 279.893L25.1895 278.919C24.5448 279.674 23.912 280.436 23.2913 281.205L24.4585 282.147ZM28.2662 277.692C28.9209 276.969 29.5871 276.255 30.265 275.55L29.1838 274.51C28.4954 275.226 27.8189 275.951 27.1544 276.685L28.2662 277.692ZM32.3268 273.471C33.0244 272.789 33.7336 272.118 34.4544 271.458L33.4412 270.352C32.7083 271.023 31.9874 271.705 31.2785 272.398L32.3268 273.471ZM36.6448 269.517C37.3847 268.884 38.1361 268.262 38.8991 267.653L37.9634 266.48C37.1866 267.1 36.4219 267.733 35.6691 268.378L36.6448 269.517ZM41.2188 265.868C42.0005 265.289 42.7937 264.723 43.5985 264.172L42.7506 262.934C41.9303 263.496 41.122 264.073 40.3257 264.663L41.2188 265.868ZM46.0403 262.566C46.8637 262.046 47.6986 261.542 48.545 261.054L47.7953 259.755C46.9316 260.253 46.08 260.767 45.2402 261.297L46.0403 262.566ZM51.1008 259.647C51.9609 259.195 52.8323 258.761 53.7151 258.343L53.0735 256.987C52.1719 257.414 51.282 257.858 50.404 258.318L51.1008 259.647ZM56.3821 257.149C57.2738 256.772 58.1765 256.412 59.0905 256.07L58.5655 254.665C57.6315 255.014 56.709 255.382 55.798 255.767L56.3821 257.149ZM61.8512 255.106C62.7705 254.807 63.7008 254.526 64.642 254.264L64.2399 252.819C63.2778 253.087 62.3269 253.374 61.3871 253.68L61.8512 255.106ZM67.4687 253.543C68.4129 253.324 69.3679 253.123 70.3335 252.943L70.0574 251.468C69.0705 251.653 68.0945 251.858 67.1293 252.082L67.4687 253.543ZM73.2028 252.468C74.1624 252.33 75.1323 252.212 76.1123 252.113L75.962 250.621C74.9609 250.722 73.9702 250.843 72.9896 250.983L73.2028 252.468ZM79.0123 251.881C79.9768 251.824 80.951 251.786 81.9348 251.768L81.9067 250.268C80.9027 250.287 79.9083 250.326 78.9235 250.384L79.0123 251.881ZM84.8556 251.77C85.8187 251.79 86.7908 251.829 87.7719 251.886L87.8598 250.389C86.8598 250.33 85.8687 250.291 84.8864 250.271L84.8556 251.77ZM90.6942 252.113C91.6509 252.204 92.6159 252.314 93.5892 252.443L93.7855 250.956C92.7947 250.825 91.812 250.713 90.8376 250.619L90.6942 252.113ZM96.495 252.877C97.442 253.036 98.3968 253.211 99.3592 253.405L99.6548 251.934C98.6765 251.738 97.7056 251.559 96.7423 251.398L96.495 252.877ZM102.232 254.03C103.168 254.249 104.111 254.485 105.062 254.738L105.447 253.289C104.483 253.032 103.525 252.792 102.574 252.57L102.232 254.03ZM107.887 255.534C108.361 255.675 108.837 255.821 109.315 255.97L109.763 254.538C109.278 254.387 108.795 254.24 108.314 254.096L107.887 255.534ZM109.315 255.97C109.789 256.118 110.259 256.275 110.727 256.439L111.225 255.024C110.741 254.854 110.254 254.692 109.763 254.538L109.315 255.97ZM113.491 257.522C114.4 257.915 115.296 258.339 116.18 258.794L116.866 257.46C115.953 256.99 115.026 256.551 114.086 256.145L113.491 257.522ZM118.76 260.227C119.606 260.733 120.441 261.267 121.265 261.83L122.111 260.591C121.262 260.012 120.402 259.461 119.53 258.94L118.76 260.227ZM123.698 263.595C124.468 264.187 125.229 264.804 125.981 265.446L126.955 264.305C126.184 263.647 125.404 263.014 124.613 262.406L123.698 263.595ZM128.211 267.445C128.936 268.126 129.652 268.83 130.361 269.558L131.435 268.51C130.712 267.768 129.979 267.048 129.238 266.352L128.211 267.445ZM132.376 271.707C133.041 272.444 133.699 273.201 134.35 273.977L135.499 273.013C134.837 272.224 134.167 271.453 133.49 270.703L132.376 271.707ZM136.259 276.332C136.859 277.098 137.454 277.88 138.044 278.679L139.251 277.788C138.653 276.978 138.049 276.184 137.439 275.407L136.259 276.332ZM139.798 281.123C140.377 281.953 140.951 282.798 141.52 283.659L142.771 282.831C142.195 281.961 141.614 281.105 141.028 280.265L139.798 281.123ZM143.118 286.131C143.646 286.968 144.171 287.818 144.691 288.681L145.976 287.906C145.45 287.035 144.92 286.176 144.386 285.33L143.118 286.131ZM146.243 291.307C146.74 292.164 147.233 293.034 147.724 293.914L149.034 293.184C148.54 292.297 148.042 291.42 147.541 290.555L146.243 291.307ZM149.154 296.527C149.628 297.408 150.1 298.3 150.569 299.201L151.899 298.508C151.427 297.601 150.953 296.704 150.475 295.816L149.154 296.527ZM151.969 301.933C152.41 302.808 152.849 303.691 153.287 304.583L154.634 303.922C154.194 303.025 153.752 302.137 153.308 301.257L151.969 301.933ZM154.595 307.281C155.029 308.189 155.461 309.105 155.892 310.028L157.251 309.393C156.818 308.466 156.384 307.546 155.948 306.634L154.595 307.281ZM157.169 312.793C157.579 313.691 157.988 314.594 158.395 315.505L159.764 314.892C159.355 313.978 158.945 313.071 158.534 312.17L157.169 312.793ZM159.615 318.254C160.021 319.177 160.426 320.106 160.83 321.04L162.207 320.445C161.801 319.508 161.395 318.576 160.988 317.651L159.615 318.254ZM162.029 323.835C162.417 324.746 162.805 325.662 163.192 326.584L164.575 326.002C164.187 325.079 163.798 324.161 163.409 323.247L162.029 323.835ZM164.353 329.362C164.739 330.292 165.126 331.228 165.512 332.167L166.899 331.597C166.512 330.656 166.125 329.719 165.738 328.786L164.353 329.362ZM166.666 334.987C167.04 335.907 167.415 336.83 167.79 337.757L169.18 337.195C168.805 336.267 168.43 335.342 168.055 334.422L166.666 334.987ZM168.915 340.549C169.29 341.484 169.666 342.421 170.042 343.362L171.435 342.806C171.058 341.864 170.682 340.925 170.307 339.99L168.915 340.549ZM171.172 346.195C171.54 347.121 171.91 348.051 172.28 348.983L173.674 348.429C173.304 347.497 172.934 346.567 172.565 345.64L171.172 346.195ZM173.39 351.78C173.76 352.715 174.132 353.652 174.504 354.592L175.899 354.039C175.526 353.1 175.155 352.162 174.784 351.227L173.39 351.78ZM175.624 357.417C175.995 358.351 176.366 359.288 176.739 360.226L178.133 359.672C177.76 358.734 177.389 357.798 177.019 356.864L175.624 357.417ZM177.851 363.022C178.223 363.956 178.596 364.891 178.971 365.827L180.364 365.27C179.989 364.335 179.616 363.4 179.245 362.467L177.851 363.022ZM180.098 368.641C180.475 369.579 180.853 370.518 181.233 371.458L182.624 370.896C182.245 369.957 181.867 369.019 181.49 368.082L180.098 368.641ZM182.364 374.248C182.743 375.179 183.123 376.111 183.505 377.043L184.893 376.474C184.512 375.543 184.132 374.613 183.754 373.683L182.364 374.248ZM184.657 379.841C185.043 380.775 185.43 381.709 185.82 382.642L187.204 382.065C186.815 381.133 186.428 380.2 186.043 379.269L184.657 379.841ZM186.989 385.431C187.379 386.358 187.772 387.285 188.167 388.211L189.547 387.623C189.153 386.699 188.761 385.773 188.371 384.848L186.989 385.431ZM189.358 390.991C189.757 391.917 190.159 392.843 190.563 393.769L191.938 393.169C191.535 392.245 191.134 391.322 190.736 390.397L189.358 390.991ZM191.782 396.542C192.189 397.464 192.599 398.384 193.012 399.304L194.381 398.69C193.969 397.773 193.56 396.855 193.153 395.936L191.782 396.542ZM194.258 402.061C194.676 402.979 195.097 403.895 195.52 404.811L196.882 404.181C196.459 403.268 196.04 402.354 195.623 401.439L194.258 402.061ZM196.799 407.554C197.229 408.467 197.661 409.379 198.097 410.29L199.45 409.642C199.016 408.735 198.585 407.826 198.157 406.915L196.799 407.554ZM199.413 413.017C199.855 413.925 200.3 414.83 200.748 415.734L202.092 415.067C201.646 414.167 201.202 413.265 200.762 412.36L199.413 413.017ZM202.103 418.439C202.558 419.339 203.017 420.237 203.479 421.132L204.812 420.444C204.352 419.552 203.895 418.658 203.442 417.762L202.103 418.439ZM204.881 423.822C205.352 424.717 205.827 425.609 206.305 426.498L207.626 425.787C207.15 424.902 206.677 424.014 206.208 423.123L204.881 423.822ZM207.752 429.157C208.238 430.04 208.727 430.921 209.221 431.798L210.528 431.063C210.037 430.19 209.55 429.313 209.066 428.434L207.752 429.157ZM210.721 434.432C211.226 435.31 211.736 436.184 212.25 437.055L213.542 436.292C213.03 435.426 212.523 434.556 212.02 433.683L210.721 434.432ZM213.805 439.656C214.327 440.52 214.854 441.379 215.385 442.235L216.66 441.444C216.131 440.593 215.607 439.738 215.088 438.879L213.805 439.656ZM216.994 444.793C217.539 445.648 218.089 446.5 218.644 447.347L219.899 446.525C219.348 445.684 218.801 444.837 218.259 443.987L216.994 444.793ZM220.323 449.876C220.888 450.714 221.457 451.548 222.032 452.377L223.265 451.522C222.694 450.699 222.128 449.871 221.567 449.038L220.323 449.876ZM223.77 454.849C224.358 455.674 224.952 456.493 225.55 457.307L226.759 456.419C226.165 455.61 225.575 454.797 224.991 453.978L223.77 454.849ZM227.369 459.742C227.981 460.549 228.598 461.35 229.22 462.145L230.401 461.22C229.784 460.431 229.171 459.636 228.564 458.836L227.369 459.742ZM231.105 464.514C231.741 465.299 232.382 466.078 233.029 466.852L234.179 465.89C233.538 465.123 232.902 464.349 232.272 463.57L231.105 464.514ZM235 469.168C235.663 469.934 236.332 470.694 237.007 471.447L238.124 470.445C237.454 469.699 236.791 468.946 236.134 468.187L235 469.168ZM239.051 473.686C239.739 474.425 240.433 475.158 241.133 475.884L242.213 474.843C241.519 474.123 240.831 473.397 240.15 472.664L239.051 473.686ZM243.264 478.05C243.981 478.766 244.705 479.474 245.435 480.174L246.474 479.092C245.75 478.398 245.034 477.697 244.323 476.988L243.264 478.05ZM247.647 482.254C248.391 482.939 249.142 483.617 249.9 484.287L250.894 483.163C250.143 482.5 249.4 481.829 248.663 481.15L247.647 482.254ZM252.195 486.272C252.967 486.926 253.745 487.571 254.531 488.208L255.476 487.043C254.698 486.413 253.928 485.774 253.164 485.127L252.195 486.272ZM256.912 490.095C257.712 490.715 258.52 491.327 259.336 491.93L260.228 490.724C259.421 490.128 258.622 489.523 257.83 488.909L256.912 490.095ZM261.8 493.71C262.624 494.291 263.455 494.863 264.294 495.426L265.13 494.18C264.301 493.624 263.479 493.058 262.665 492.484L261.8 493.71ZM266.833 497.087C267.687 497.632 268.549 498.167 269.418 498.693L270.194 497.41C269.335 496.89 268.483 496.361 267.639 495.822L266.833 497.087ZM272.05 500.243C272.922 500.742 273.801 501.232 274.689 501.712L275.403 500.393C274.526 499.919 273.657 499.435 272.796 498.941L272.05 500.243ZM277.366 503.121C278.266 503.581 279.174 504.031 280.09 504.471L280.74 503.119C279.835 502.684 278.938 502.239 278.048 501.785L277.366 503.121ZM282.863 505.762C283.784 506.178 284.713 506.584 285.651 506.979L286.234 505.597C285.308 505.206 284.39 504.805 283.479 504.395L282.863 505.762ZM288.435 508.116C289.371 508.485 290.314 508.844 291.266 509.193L291.783 507.785C290.842 507.44 289.91 507.085 288.985 506.72L288.435 508.116ZM294.144 510.211C295.112 510.54 296.087 510.858 297.071 511.167L297.52 509.736C296.548 509.431 295.583 509.116 294.627 508.79L294.144 510.211ZM299.947 512.033C300.905 512.309 301.871 512.576 302.844 512.833L303.227 511.382C302.264 511.128 301.31 510.865 300.363 510.591L299.947 512.033ZM305.787 513.574C306.775 513.811 307.772 514.038 308.776 514.255L309.093 512.789C308.099 512.574 307.114 512.35 306.137 512.115L305.787 513.574ZM311.81 514.875C312.776 515.061 313.75 515.238 314.73 515.406L314.983 513.927C314.013 513.761 313.05 513.586 312.094 513.402L311.81 514.875ZM317.693 515.881C318.688 516.029 319.69 516.169 320.7 516.298L320.891 514.811C319.892 514.682 318.9 514.544 317.915 514.397L317.693 515.881ZM323.75 516.658C324.774 516.769 325.806 516.869 326.845 516.96L326.975 515.466C325.946 515.376 324.925 515.276 323.911 515.167L323.75 516.658ZM329.796 517.189C330.783 517.257 331.777 517.315 332.778 517.365L332.852 515.867C331.861 515.818 330.876 515.76 329.898 515.693L329.796 517.189ZM335.8 517.488C336.815 517.52 337.836 517.542 338.863 517.556L338.883 516.056C337.865 516.043 336.853 516.02 335.848 515.988L335.8 517.488ZM341.967 517.57C342.967 517.566 343.973 517.553 344.986 517.531L344.954 516.031C343.95 516.053 342.952 516.066 341.961 516.07L341.967 517.57ZM347.946 517.444C348.939 517.407 349.938 517.362 350.943 517.309L350.863 515.811C349.866 515.864 348.875 515.909 347.891 515.945L347.946 517.444ZM353.976 517.124C354.993 517.054 356.017 516.975 357.046 516.889L356.92 515.394C355.898 515.48 354.883 515.558 353.873 515.627L353.976 517.124ZM360.153 516.603C361.134 516.506 362.121 516.401 363.113 516.288L362.944 514.798C361.958 514.909 360.979 515.014 360.005 515.111L360.153 516.603ZM366.051 515.934C367.035 515.809 368.025 515.676 369.021 515.536L368.812 514.051C367.823 514.19 366.839 514.322 365.861 514.446L366.051 515.934ZM372.024 515.093C373.03 514.938 374.042 514.776 375.06 514.605L374.812 513.126C373.801 513.295 372.795 513.457 371.795 513.611L372.024 515.093ZM378.129 514.072C378.643 513.979 379.159 513.885 379.676 513.788L379.401 512.314C378.887 512.41 378.374 512.504 377.863 512.596L378.129 514.072ZM379.676 513.788C380.174 513.695 380.671 513.602 381.168 513.508L380.889 512.034C380.394 512.128 379.898 512.221 379.401 512.314L379.676 513.788ZM384.139 512.938C385.127 512.746 386.112 512.553 387.094 512.357L386.801 510.886C385.821 511.081 384.838 511.274 383.853 511.466L384.139 512.938ZM390.034 511.764C391.011 511.565 391.986 511.363 392.958 511.16L392.651 509.692C391.681 509.895 390.709 510.096 389.734 510.295L390.034 511.764ZM395.866 510.544C396.833 510.337 397.797 510.128 398.759 509.917L398.437 508.452C397.478 508.662 396.516 508.871 395.552 509.077L395.866 510.544ZM401.718 509.259C402.702 509.038 403.683 508.815 404.662 508.59L404.325 507.128C403.349 507.353 402.371 507.575 401.39 507.796L401.718 509.259ZM407.588 507.909C408.561 507.68 409.531 507.449 410.498 507.216L410.147 505.757C409.182 505.99 408.215 506.22 407.244 506.449L407.588 507.909ZM413.391 506.511C414.353 506.274 415.312 506.035 416.268 505.794L415.901 504.34C414.948 504.58 413.992 504.818 413.032 505.054L413.391 506.511ZM419.184 505.052C420.161 504.8 421.136 504.546 422.108 504.29L421.727 502.839C420.757 503.095 419.785 503.348 418.809 503.599L419.184 505.052ZM425.016 503.516C425.982 503.256 426.945 502.994 427.905 502.73L427.508 501.284C426.55 501.547 425.59 501.809 424.626 502.068L425.016 503.516ZM430.777 501.932C431.732 501.664 432.683 501.394 433.632 501.122L433.218 499.681C432.272 499.952 431.324 500.221 430.372 500.488L430.777 501.932ZM436.512 500.288C437.482 500.004 438.448 499.718 439.412 499.43L438.982 497.993C438.021 498.28 437.057 498.565 436.09 498.848L436.512 500.288ZM442.293 498.559C443.25 498.267 444.205 497.973 445.156 497.676L444.71 496.244C443.761 496.54 442.81 496.833 441.855 497.125L442.293 498.559ZM448 496.781C448.944 496.481 449.886 496.178 450.825 495.874L450.362 494.447C449.426 494.751 448.487 495.052 447.545 495.352L448 496.781ZM453.677 494.939C454.636 494.622 455.592 494.302 456.544 493.981L456.064 492.559C455.115 492.88 454.162 493.199 453.205 493.515L453.677 494.939ZM459.392 493.009C460.338 492.683 461.281 492.355 462.22 492.025L461.723 490.61C460.786 490.939 459.846 491.266 458.903 491.591L459.392 493.009ZM465.028 491.029C465.961 490.695 466.89 490.358 467.816 490.02L467.301 488.611C466.378 488.948 465.452 489.283 464.522 489.617L465.028 491.029ZM470.645 488.976C471.591 488.624 472.533 488.269 473.472 487.913L472.939 486.511C472.003 486.866 471.064 487.219 470.121 487.571L470.645 488.976ZM476.278 486.836C477.21 486.475 478.138 486.112 479.063 485.747L478.512 484.352C477.59 484.716 476.665 485.078 475.736 485.438L476.278 486.836ZM481.827 484.645C482.747 484.275 483.665 483.902 484.579 483.527L484.01 482.14C483.099 482.513 482.184 482.885 481.266 483.254L481.827 484.645ZM487.378 482.368C488.307 481.979 489.233 481.589 490.155 481.196L489.567 479.816C488.648 480.207 487.726 480.597 486.799 480.984L487.378 482.368ZM492.91 480.01C493.825 479.613 494.736 479.214 495.643 478.812L495.036 477.441C494.132 477.841 493.224 478.239 492.312 478.635L492.91 480.01ZM498.353 477.601C499.269 477.188 500.181 476.773 501.09 476.355L500.463 474.992C499.558 475.408 498.649 475.822 497.736 476.234L498.353 477.601ZM503.83 475.084C504.74 474.658 505.646 474.229 506.548 473.799L505.902 472.445C505.003 472.874 504.101 473.301 503.194 473.725L503.83 475.084ZM509.241 472.501C510.135 472.066 511.025 471.629 511.912 471.19L511.246 469.846C510.363 470.283 509.476 470.719 508.585 471.152L509.241 472.501ZM514.581 469.855C515.484 469.399 516.383 468.94 517.277 468.48L516.591 467.146C515.7 467.605 514.804 468.061 513.905 468.516L514.581 469.855ZM519.949 467.092C520.835 466.627 521.717 466.16 522.595 465.691L521.888 464.368C521.014 464.836 520.135 465.301 519.252 465.764L519.949 467.092ZM525.217 464.277C526.089 463.802 526.958 463.325 527.822 462.845L527.094 461.533C526.233 462.011 525.368 462.486 524.499 462.96L525.217 464.277ZM530.465 461.365C531.341 460.869 532.213 460.371 533.081 459.871L532.332 458.571C531.468 459.069 530.599 459.565 529.726 460.059L530.465 461.365ZM535.671 458.364C536.53 457.859 537.385 457.353 538.235 456.844L537.464 455.557C536.618 456.063 535.767 456.568 534.911 457.07L535.671 458.364ZM540.777 455.307C541.642 454.78 542.502 454.25 543.357 453.718L542.564 452.444C541.713 452.974 540.857 453.501 539.996 454.027L540.777 455.307ZM545.908 452.116C546.754 451.579 547.595 451.041 548.432 450.5L547.618 449.24C546.785 449.779 545.947 450.315 545.105 450.849L545.908 452.116ZM550.928 448.871C551.759 448.323 552.585 447.773 553.406 447.221L552.57 445.976C551.752 446.526 550.929 447.073 550.102 447.618L550.928 448.871ZM555.912 445.521C556.742 444.952 557.567 444.381 558.388 443.808L557.528 442.578C556.712 443.149 555.89 443.717 555.064 444.284L555.912 445.521ZM560.834 442.081C561.645 441.503 562.45 440.923 563.251 440.341L562.369 439.128C561.572 439.707 560.77 440.284 559.963 440.859L560.834 442.081ZM565.662 438.57C566.474 437.968 567.281 437.363 568.082 436.757L567.177 435.561C566.379 436.164 565.577 436.766 564.769 437.365L565.662 438.57ZM570.471 434.93C571.262 434.319 572.047 433.706 572.828 433.091L571.899 431.913C571.123 432.525 570.341 433.135 569.554 433.743L570.471 434.93ZM575.154 431.238C575.939 430.607 576.718 429.973 577.492 429.338L576.54 428.178C575.77 428.811 574.995 429.441 574.214 430.07L575.154 431.238ZM579.814 427.41C580.582 426.766 581.345 426.119 582.103 425.47L581.127 424.331C580.373 424.977 579.614 425.62 578.85 426.261L579.814 427.41ZM584.359 423.517C585.109 422.86 585.853 422.202 586.592 421.541L585.592 420.423C584.857 421.08 584.117 421.735 583.371 422.388L584.359 423.517ZM588.837 419.512C589.579 418.834 590.316 418.153 591.047 417.471L590.023 416.375C589.296 417.053 588.563 417.73 587.825 418.405L588.837 419.512ZM593.223 415.416C593.942 414.729 594.656 414.04 595.364 413.349L594.316 412.275C593.612 412.963 592.902 413.648 592.187 414.331L593.223 415.416ZM597.509 411.23C598.222 410.518 598.929 409.804 599.63 409.087L598.558 408.038C597.861 408.75 597.158 409.461 596.449 410.169L597.509 411.23ZM601.715 406.931C602.404 406.21 603.087 405.487 603.763 404.763L602.667 403.739C601.994 404.46 601.315 405.178 600.631 405.895L601.715 406.931ZM605.796 402.56C606.476 401.814 607.15 401.066 607.817 400.316L606.697 399.319C606.033 400.064 605.364 400.808 604.688 401.549L605.796 402.56ZM609.8 398.059C610.455 397.305 611.103 396.549 611.745 395.791L610.601 394.821C609.963 395.575 609.318 396.326 608.668 397.076L609.8 398.059ZM613.661 393.499C614.305 392.72 614.941 391.939 615.571 391.156L614.402 390.216C613.776 390.994 613.144 391.77 612.505 392.544L613.661 393.499ZM617.441 388.801C618.057 388.014 618.667 387.225 619.271 386.434L618.078 385.524C617.479 386.31 616.873 387.094 616.26 387.876L617.441 388.801ZM621.064 384.052C621.666 383.241 622.262 382.427 622.85 381.612L621.634 380.734C621.05 381.544 620.458 382.352 619.86 383.158L621.064 384.052ZM624.595 379.161C625.17 378.342 625.738 377.521 626.299 376.699L625.059 375.854C624.502 376.671 623.938 377.486 623.367 378.299L624.595 379.161ZM627.961 374.224C628.519 373.382 629.069 372.538 629.613 371.692L628.35 370.881C627.811 371.721 627.264 372.559 626.711 373.396L627.961 374.224ZM631.221 369.148C631.749 368.299 632.271 367.447 632.785 366.594L631.501 365.82C630.99 366.667 630.472 367.512 629.947 368.356L631.221 369.148ZM634.309 364.027C634.817 363.156 635.319 362.282 635.813 361.407L634.506 360.67C634.016 361.539 633.518 362.406 633.013 363.271L634.309 364.027ZM637.272 358.777C637.751 357.898 638.223 357.018 638.687 356.136L637.359 355.438C636.899 356.313 636.431 357.186 635.955 358.058L637.272 358.777ZM640.06 353.48C640.516 352.58 640.964 351.68 641.405 350.777L640.057 350.119C639.62 351.014 639.175 351.908 638.722 352.801L640.06 353.48ZM642.704 348.066C643.13 347.161 643.547 346.254 643.957 345.346L642.59 344.729C642.183 345.63 641.769 346.53 641.347 347.428L642.704 348.066ZM645.169 342.604C645.569 341.68 645.961 340.754 646.345 339.827L644.959 339.253C644.578 340.173 644.189 341.091 643.792 342.008L645.169 342.604ZM647.473 337.043C647.841 336.113 648.201 335.182 648.553 334.25L647.15 333.72C646.801 334.644 646.443 335.568 646.078 336.49L647.473 337.043ZM649.592 331.431C649.932 330.485 650.265 329.537 650.588 328.588L649.169 328.104C648.848 329.045 648.518 329.985 648.181 330.923L649.592 331.431ZM651.535 325.739C651.843 324.788 652.142 323.836 652.433 322.882L650.999 322.444C650.71 323.39 650.413 324.334 650.108 325.277L651.535 325.739ZM653.289 319.996C653.566 319.031 653.835 318.065 654.096 317.098L652.648 316.707C652.389 317.667 652.122 318.625 651.847 319.582L653.289 319.996ZM654.853 314.193C655.097 313.224 655.333 312.253 655.561 311.281L654.1 310.94C653.875 311.903 653.641 312.866 653.399 313.827L654.853 314.193ZM656.222 308.343C656.434 307.363 656.638 306.381 656.833 305.399L655.362 305.107C655.168 306.081 654.966 307.054 654.756 308.026L656.222 308.343ZM657.393 302.451C657.571 301.465 657.741 300.479 657.902 299.492L656.422 299.25C656.262 300.228 656.093 301.207 655.917 302.184L657.393 302.451ZM658.362 296.519C658.507 295.527 658.643 294.535 658.77 293.542L657.282 293.351C657.156 294.335 657.021 295.319 656.878 296.302L658.362 296.519ZM659.127 290.562C659.237 289.565 659.339 288.568 659.432 287.571L657.939 287.432C657.846 288.42 657.745 289.408 657.636 290.396L659.127 290.562ZM659.686 284.576C659.762 283.577 659.829 282.577 659.887 281.578L658.39 281.49C658.332 282.481 658.265 283.472 658.19 284.462L659.686 284.576ZM660.037 278.578C660.078 277.577 660.11 276.576 660.134 275.574L658.635 275.539C658.611 276.532 658.579 277.524 658.538 278.516L660.037 278.578ZM660.179 272.57C660.186 271.568 660.183 270.566 660.172 269.564L658.672 269.581C658.683 270.574 658.686 271.567 658.679 272.56L660.179 272.57ZM660.113 266.56C660.084 265.56 660.047 264.559 660.001 263.559L658.503 263.628C658.548 264.619 658.585 265.611 658.613 266.603L660.113 266.56ZM659.838 260.558C659.775 259.558 659.703 258.558 659.622 257.558L658.127 257.678C658.207 258.669 658.278 259.661 658.341 260.653L659.838 260.558ZM659.355 254.568C659.258 253.573 659.152 252.577 659.037 251.582L657.547 251.754C657.661 252.741 657.766 253.727 657.863 254.714L659.355 254.568ZM658.667 248.598C658.535 247.605 658.394 246.612 658.245 245.619L656.762 245.842C656.91 246.826 657.049 247.81 657.18 248.795L658.667 248.598ZM657.775 242.658C657.609 241.672 657.435 240.685 657.253 239.7L655.778 239.973C655.959 240.95 656.131 241.928 656.295 242.906L657.775 242.658ZM656.68 236.745C656.58 236.253 656.478 235.76 656.374 235.269L654.907 235.579C655.01 236.067 655.111 236.555 655.21 237.043L656.68 236.745ZM656.374 235.269C656.268 234.768 656.16 234.27 656.049 233.774L654.585 234.101C654.695 234.591 654.802 235.084 654.907 235.579L656.374 235.269ZM655.357 230.826C655.117 229.853 654.868 228.888 654.609 227.933L653.161 228.325C653.417 229.269 653.664 230.223 653.901 231.185L655.357 230.826ZM653.786 225.024C653.499 224.052 653.202 223.091 652.896 222.139L651.468 222.598C651.77 223.539 652.063 224.489 652.347 225.449L653.786 225.024ZM651.949 219.311C651.614 218.348 651.269 217.395 650.914 216.452L649.51 216.98C649.86 217.911 650.201 218.853 650.532 219.804L651.949 219.311ZM649.821 213.65C649.444 212.716 649.057 211.793 648.66 210.879L647.284 211.476C647.676 212.378 648.058 213.29 648.431 214.212L649.821 213.65ZM647.42 208.117C646.997 207.206 646.565 206.306 646.123 205.416L644.779 206.082C645.215 206.961 645.642 207.85 646.059 208.749L647.42 208.117ZM644.743 202.722C644.272 201.83 643.791 200.948 643.301 200.077L641.993 200.812C642.477 201.672 642.952 202.543 643.417 203.423L644.743 202.722ZM641.793 197.477C641.274 196.607 640.745 195.749 640.208 194.9L638.941 195.703C639.471 196.54 639.993 197.388 640.506 198.246L641.793 197.477ZM638.569 192.387C638.005 191.546 637.432 190.716 636.851 189.897L635.627 190.765C636.201 191.574 636.767 192.393 637.324 193.223L638.569 192.387ZM635.076 187.465C634.472 186.658 633.859 185.863 633.238 185.078L632.062 186.008C632.675 186.783 633.28 187.568 633.876 188.364L635.076 187.465ZM631.335 182.735C630.691 181.964 630.04 181.203 629.381 180.453L628.254 181.443C628.905 182.183 629.548 182.934 630.183 183.696L631.335 182.735ZM627.357 178.207C626.675 177.469 625.986 176.742 625.29 176.026L624.214 177.071C624.902 177.779 625.583 178.497 626.256 179.225L627.357 178.207ZM623.158 173.887C622.439 173.183 621.714 172.49 620.981 171.807L619.958 172.904C620.682 173.578 621.399 174.263 622.109 174.958L623.158 173.887ZM618.753 169.779C618 169.11 617.241 168.451 616.477 167.804L615.507 168.948C616.263 169.588 617.013 170.239 617.757 170.9L618.753 169.779ZM614.159 165.886C613.375 165.252 612.586 164.629 611.791 164.017L610.875 165.204C611.661 165.81 612.441 166.426 613.216 167.052L614.159 165.886ZM609.392 162.208C608.58 161.61 607.763 161.023 606.942 160.445L606.079 161.672C606.891 162.244 607.699 162.825 608.502 163.416L609.392 162.208ZM604.465 158.742C603.629 158.181 602.788 157.629 601.944 157.087L601.134 158.349C601.969 158.886 602.801 159.432 603.628 159.987L604.465 158.742ZM599.397 155.488C598.539 154.962 597.678 154.445 596.814 153.938L596.055 155.232C596.911 155.734 597.763 156.245 598.612 156.766L599.397 155.488ZM594.204 152.441C593.327 151.949 592.448 151.467 591.566 150.994L590.857 152.316C591.731 152.784 592.602 153.262 593.47 153.749L594.204 152.441ZM588.9 149.595C588.006 149.137 587.11 148.688 586.214 148.249L585.553 149.595C586.442 150.031 587.33 150.476 588.215 150.93L588.9 149.595ZM583.496 146.946C582.588 146.52 581.678 146.104 580.768 145.696L580.155 147.065C581.057 147.469 581.959 147.882 582.86 148.304L583.496 146.946ZM578.006 144.486C577.084 144.092 576.162 143.706 575.241 143.329L574.673 144.718C575.587 145.091 576.501 145.474 577.415 145.865L578.006 144.486ZM572.438 142.209C571.504 141.844 570.572 141.488 569.64 141.141L569.116 142.547C570.04 142.891 570.966 143.244 571.892 143.606L572.438 142.209ZM566.803 140.108C565.858 139.772 564.915 139.445 563.975 139.126L563.493 140.546C564.427 140.863 565.362 141.188 566.3 141.521L566.803 140.108ZM561.108 138.176C560.154 137.868 559.203 137.568 558.255 137.277L557.814 138.71C558.755 139 559.699 139.298 560.647 139.604L561.108 138.176ZM555.361 136.408C554.399 136.127 553.442 135.854 552.489 135.589L552.087 137.034C553.033 137.297 553.984 137.568 554.94 137.848L555.361 136.408ZM549.569 134.797C548.598 134.541 547.633 134.293 546.675 134.053L546.311 135.509C547.263 135.747 548.222 135.993 549.186 136.248L549.569 134.797ZM543.738 133.339C542.758 133.106 541.785 132.882 540.82 132.667L540.493 134.131C541.451 134.345 542.418 134.567 543.393 134.798L543.738 133.339ZM537.876 132.027C536.885 131.818 535.903 131.617 534.932 131.424L534.64 132.896C535.605 133.087 536.581 133.287 537.567 133.495L537.876 132.027ZM531.993 130.859C530.988 130.672 529.996 130.493 529.019 130.323L528.761 131.8C529.733 131.97 530.719 132.147 531.718 132.333L531.993 130.859ZM526.075 129.827C525.064 129.663 524.071 129.507 523.096 129.36L522.872 130.843C523.841 130.989 524.829 131.144 525.834 131.307L526.075 129.827ZM520.113 128.926C519.103 128.785 518.116 128.653 517.153 128.53L516.962 130.018C517.92 130.141 518.901 130.272 519.906 130.412L520.113 128.926ZM514.176 128.164C513.14 128.042 512.137 127.93 511.171 127.827L511.012 129.319C511.973 129.421 512.97 129.532 514.001 129.653L514.176 128.164ZM508.175 127.524C507.68 127.477 507.196 127.431 506.725 127.389L506.589 128.883C507.058 128.925 507.539 128.97 508.032 129.017L508.175 127.524Z" fill="url(#paint1_linear_1033_295)"/>
<circle cx="111.064" cy="80.8475" r="61.5254" fill="#FFDD76"/>
<circle opacity="0.56" cx="111.064" cy="80.8475" r="34.0678" fill="#EECB64"/>
<path d="M96.9655 127.003C97.0292 126.945 97.091 126.906 97.1507 126.885C97.2074 126.863 97.2739 126.863 97.35 126.884C97.4174 126.903 97.4848 126.944 97.5523 127.007C97.6161 127.073 97.6903 127.146 97.775 127.227C97.8568 127.307 97.9548 127.385 98.0692 127.462C98.1827 127.541 98.32 127.603 98.4811 127.649C98.7593 127.727 98.9841 127.726 99.1556 127.645C99.3234 127.566 99.4358 127.425 99.4928 127.223C99.5291 127.094 99.5183 126.976 99.4602 126.868C99.4022 126.759 99.316 126.656 99.2015 126.557C99.0842 126.458 98.948 126.358 98.793 126.257C98.6343 126.159 98.4747 126.052 98.3142 125.937C98.1529 125.825 97.9993 125.703 97.8535 125.57C97.7046 125.436 97.5829 125.285 97.4883 125.116C97.3908 124.946 97.3279 124.755 97.2996 124.541C97.2704 124.331 97.2935 124.092 97.3687 123.826C97.4521 123.53 97.5814 123.268 97.7566 123.039C97.9318 122.81 98.1448 122.627 98.3955 122.489C98.6425 122.353 98.9251 122.27 99.2435 122.24C99.5581 122.211 99.897 122.249 100.26 122.351C100.459 122.407 100.657 122.485 100.853 122.585C101.047 122.684 101.23 122.797 101.402 122.925C101.574 123.055 101.731 123.196 101.872 123.346C102.012 123.497 102.128 123.653 102.219 123.814L101.584 124.384C101.534 124.424 101.477 124.452 101.413 124.469C101.344 124.487 101.276 124.487 101.209 124.468C101.121 124.443 101.041 124.391 100.969 124.31C100.894 124.229 100.81 124.139 100.718 124.04C100.623 123.941 100.51 123.842 100.379 123.745C100.248 123.649 100.083 123.572 99.8841 123.516C99.6147 123.44 99.3888 123.439 99.2064 123.514C99.0232 123.592 98.8952 123.76 98.8225 124.018C98.7804 124.167 98.7871 124.3 98.8427 124.417C98.8982 124.534 98.9847 124.642 99.102 124.742C99.2165 124.84 99.352 124.937 99.5086 125.032C99.6653 125.127 99.8251 125.227 99.988 125.333C100.15 125.442 100.305 125.561 100.451 125.691C100.597 125.824 100.718 125.977 100.815 126.15C100.908 126.324 100.967 126.524 100.992 126.75C101.016 126.978 100.986 127.241 100.902 127.54C100.834 127.78 100.72 128.001 100.559 128.202C100.398 128.403 100.198 128.566 99.9603 128.692C99.7225 128.818 99.4526 128.895 99.1505 128.924C98.8476 128.955 98.5204 128.921 98.169 128.822C97.9728 128.767 97.787 128.697 97.6116 128.613C97.4324 128.531 97.2681 128.435 97.1185 128.327C96.9681 128.221 96.8331 128.106 96.7136 127.98C96.5903 127.857 96.4864 127.726 96.402 127.589L96.9655 127.003Z" fill="#BB932C"/>
<path d="M89.9178 124.32L90.6373 122.946L88.7852 121.976L89.3142 120.965L91.1663 121.935L91.9006 120.531L89.4824 119.266L90.0326 118.214L93.8258 120.199L90.7426 126.091L86.9494 124.106L87.4996 123.055L89.9178 124.32Z" fill="#BB932C"/>
<path d="M82.0893 113.975L82.873 113.024L85.9655 115.572L81.7365 120.704L80.5459 119.723L83.9913 115.542L82.0893 113.975Z" fill="#BB932C"/>
<path d="M72.9716 106.689C73.355 106.399 73.7622 106.196 74.1932 106.08C74.6224 105.961 75.0503 105.929 75.4772 105.984C75.9016 106.041 76.3114 106.187 76.7067 106.422C77.1002 106.654 77.453 106.977 77.7651 107.39C78.0772 107.802 78.2926 108.231 78.4113 108.675C78.53 109.119 78.5598 109.555 78.5007 109.981C78.4374 110.406 78.2912 110.811 78.0621 111.194C77.8312 111.575 77.5241 111.91 77.1407 112.2C76.7573 112.49 76.351 112.694 75.9219 112.813C75.4909 112.929 75.0632 112.959 74.6388 112.902C74.2126 112.843 73.8018 112.696 73.4065 112.461C73.0112 112.226 72.6575 111.902 72.3454 111.49C72.0333 111.077 71.82 110.649 71.7056 110.205C71.5869 109.761 71.558 109.327 71.6189 108.903C71.6799 108.479 71.8257 108.077 72.0566 107.696C72.2857 107.313 72.5907 106.978 72.9716 106.689ZM73.9244 107.949C73.6623 108.147 73.4527 108.359 73.2954 108.585C73.1357 108.813 73.0317 109.046 72.9834 109.284C72.9332 109.521 72.9391 109.761 73.001 110.004C73.0629 110.247 73.1828 110.486 73.3609 110.722C73.5408 110.959 73.7403 111.142 73.9593 111.27C74.1764 111.396 74.4065 111.468 74.6494 111.487C74.8904 111.503 75.1422 111.465 75.4047 111.373C75.6648 111.283 75.9259 111.139 76.1879 110.941C76.4524 110.741 76.6645 110.527 76.8242 110.299C76.9815 110.073 77.0852 109.842 77.1354 109.606C77.1837 109.367 77.1769 109.126 77.115 108.883C77.0489 108.639 76.9259 108.398 76.7459 108.161C76.5679 107.925 76.3715 107.744 76.1567 107.616C75.9396 107.491 75.7104 107.42 75.4694 107.404C75.2265 107.385 74.975 107.421 74.7149 107.511C74.4524 107.603 74.1889 107.749 73.9244 107.949Z" fill="#BB932C"/>
<path d="M66.7251 94.7068L66.6617 94.4686C66.603 94.2481 66.4917 94.1077 66.3276 94.0475L63.8432 93.1595C63.7088 93.104 63.608 93.0332 63.5411 92.9471C63.4703 92.8589 63.4154 92.7413 63.3763 92.5942L63.0312 91.2975L66.1361 92.5115C66.3515 92.599 66.5196 92.7102 66.6405 92.8449C66.6519 92.7222 66.6822 92.6055 66.7315 92.4948C66.7807 92.384 66.8536 92.2733 66.9501 92.1627L69.4152 89.4285L69.7696 90.7605C69.7923 90.8458 69.806 90.9208 69.8107 90.9857C69.8146 91.0477 69.8106 91.1038 69.7989 91.1542C69.7871 91.2045 69.7693 91.2502 69.7456 91.2911C69.7189 91.3329 69.6874 91.3743 69.6511 91.4155L67.8023 93.4661C67.7341 93.5409 67.6947 93.6238 67.6843 93.7147C67.6702 93.8035 67.6815 93.917 67.7182 94.0552L67.8145 94.4169L70.5491 93.6891L70.9458 95.1799L64.5196 96.8901L64.1228 95.3994L66.7251 94.7068Z" fill="#BB932C"/>
<path d="M68.7808 83.5822L68.8836 85.1306L62.2483 85.5713L62.1455 84.0229L68.7808 83.5822Z" fill="#BB932C"/>
<path d="M62.8381 72.216L69.4282 73.1053L69.3208 73.9014C69.3049 74.019 69.2734 74.1161 69.2262 74.1926C69.1765 74.2657 69.0995 74.3352 68.9955 74.4009L64.6456 76.9779C64.7648 76.9817 64.8804 76.9896 64.9924 77.0017C65.1017 77.0103 65.2047 77.0211 65.3012 77.0341L68.8337 77.5108L68.6518 78.8587L62.0617 77.9694L62.1703 77.1643C62.1793 77.0979 62.1898 77.0426 62.2019 76.9981C62.2141 76.9537 62.2316 76.9147 62.2546 76.8809C62.2746 76.8468 62.3019 76.8151 62.3365 76.786C62.3711 76.7569 62.4169 76.7247 62.4739 76.6894L66.8546 74.089C66.7259 74.087 66.6024 74.0811 66.4839 74.0712C66.3625 74.061 66.249 74.0487 66.1435 74.0345L62.6562 73.5639L62.8381 72.216Z" fill="#BB932C"/>
<path d="M68.6373 63.9379L69.5319 61.7495L72.1301 62.8116C72.2321 63.2215 72.2621 63.6265 72.2201 64.0268C72.1792 64.4243 72.0793 64.8174 71.9204 65.2061C71.7132 65.713 71.4455 66.1427 71.1174 66.4951C70.7876 66.8435 70.4228 67.1085 70.0231 67.2903C69.6206 67.4709 69.195 67.5632 68.7463 67.5671C68.2948 67.5699 67.8437 67.4792 67.3931 67.295C66.934 67.1073 66.544 66.8592 66.2232 66.5505C65.8995 66.2407 65.6558 65.8879 65.4921 65.4923C65.3295 65.0939 65.2526 64.663 65.2611 64.1997C65.2709 63.7336 65.3771 63.2528 65.5797 62.757C65.6845 62.5007 65.804 62.2686 65.9384 62.0605C66.0728 61.8525 66.2151 61.6691 66.3655 61.5103C66.517 61.3487 66.6757 61.2098 66.8416 61.0935C67.0074 60.9772 67.1749 60.8813 67.3438 60.8057L67.804 61.4771C67.8761 61.5822 67.9022 61.6914 67.8821 61.8048C67.8632 61.9154 67.7929 62.0149 67.6713 62.1033C67.5577 62.1883 67.4562 62.2717 67.3669 62.3535C67.2759 62.4314 67.1936 62.5161 67.12 62.6076C67.0464 62.6992 66.979 62.7998 66.9177 62.9095C66.8564 63.0193 66.7964 63.1459 66.7377 63.2896C66.6283 63.5572 66.5777 63.8175 66.586 64.0707C66.5914 64.3228 66.649 64.56 66.7586 64.7823C66.8694 65.0018 67.0292 65.2019 67.238 65.3826C67.4441 65.5621 67.6949 65.7124 67.9907 65.8332C68.3174 65.9668 68.6259 66.0403 68.9162 66.0538C69.2065 66.0673 69.4724 66.0281 69.7138 65.9361C69.9564 65.8413 70.1707 65.6988 70.357 65.5087C70.5415 65.3146 70.6908 65.0781 70.8047 64.7993C70.875 64.6275 70.9214 64.4657 70.944 64.3138C70.9678 64.1592 70.9786 64.0042 70.9763 63.8488L70.0427 63.4671L69.794 64.0755C69.7571 64.1656 69.7044 64.2262 69.6358 64.2574C69.5672 64.2885 69.4963 64.2891 69.4231 64.2591L68.6373 63.9379Z" fill="#BB932C"/>
<path d="M77.8838 44.9557L82.6317 49.6118L81.5452 50.7197L79.5378 48.7512L77.646 50.6804L79.6534 52.6489L78.5669 53.7568L73.8189 49.1008L74.9054 47.9929L76.89 49.939L78.7818 48.0098L76.7973 46.0637L77.8838 44.9557Z" fill="#BB932C"/>
<path d="M90.4286 40.185C90.6736 40.5987 90.8295 41.0262 90.8963 41.4676C90.9657 41.9074 90.9491 42.3362 90.8465 42.7541C90.7423 43.1694 90.5511 43.5602 90.2729 43.9265C89.9973 44.2912 89.637 44.6053 89.1919 44.8688C88.7468 45.1324 88.2968 45.298 87.8419 45.3658C87.387 45.4336 86.9511 45.4141 86.5342 45.3073C86.1185 45.1963 85.7332 45.0054 85.3783 44.7346C85.0261 44.4622 84.7276 44.1192 84.4826 43.7055C84.2377 43.2918 84.0805 42.8651 84.0111 42.4253C83.9442 41.984 83.9629 41.5556 84.0671 41.1404C84.1739 40.7235 84.3664 40.332 84.6446 39.9657C84.9228 39.5994 85.2845 39.2845 85.7296 39.021C86.1747 38.7575 86.6241 38.5939 87.078 38.5303C87.5329 38.4625 87.9675 38.4828 88.3817 38.5911C88.7959 38.6995 89.1791 38.8898 89.5313 39.1622C89.8862 39.433 90.1853 39.774 90.4286 40.185ZM89.0698 40.9896C88.9024 40.7068 88.7153 40.4745 88.5087 40.2928C88.3005 40.1084 88.0806 39.9787 87.8488 39.9038C87.6196 39.8273 87.3807 39.8061 87.1321 39.8401C86.8836 39.8742 86.6323 39.9664 86.3783 40.1167C86.1217 40.2686 85.9174 40.4462 85.7654 40.6493C85.616 40.8509 85.5185 41.0713 85.4727 41.3106C85.4296 41.5483 85.4388 41.8028 85.5004 42.0739C85.5604 42.3425 85.6741 42.6182 85.8415 42.901C86.0105 43.1864 86.199 43.4212 86.4072 43.6056C86.6138 43.7874 86.8317 43.9165 87.0609 43.993C87.2927 44.0679 87.5329 44.0884 87.7814 44.0543C88.0311 44.0161 88.2842 43.9211 88.5408 43.7692C88.7948 43.6188 88.9972 43.4441 89.1482 43.2451C89.2975 43.0435 89.3938 42.8239 89.4369 42.5862C89.4827 42.3469 89.4756 42.093 89.4156 41.8245C89.354 41.5533 89.2388 41.275 89.0698 40.9896Z" fill="#BB932C"/>
<path d="M98.5703 34.9825C98.5484 35.0658 98.5181 35.1325 98.4795 35.1827C98.4438 35.232 98.3882 35.2684 98.3126 35.2918C98.2458 35.3125 98.1668 35.3147 98.0757 35.2984C97.9867 35.2782 97.8846 35.2573 97.7696 35.2356C97.6574 35.213 97.5326 35.2008 97.395 35.1988C97.2565 35.194 97.1074 35.2164 96.9475 35.2659C96.6714 35.3516 96.4836 35.4751 96.3839 35.6366C96.2863 35.7943 96.2686 35.9734 96.3307 36.174C96.3704 36.3019 96.444 36.3953 96.5515 36.4544C96.659 36.5134 96.7876 36.5532 96.9373 36.5736C97.0899 36.5932 97.2586 36.603 97.4434 36.6031C97.6302 36.5993 97.8221 36.6019 98.0192 36.6109C98.2154 36.6169 98.4109 36.6359 98.6056 36.668C98.8032 36.6991 98.9877 36.7597 99.159 36.85C99.3332 36.9393 99.4903 37.0658 99.6303 37.2295C99.7693 37.3902 99.8799 37.6028 99.9619 37.8673C100.053 38.1608 100.087 38.4512 100.065 38.7385C100.042 39.0258 99.9636 39.2955 99.8283 39.5477C99.6951 39.7961 99.5032 40.0197 99.2526 40.2184C99.0041 40.4134 98.6996 40.5667 98.3392 40.6785C98.1416 40.7398 97.9333 40.7821 97.7144 40.8054C97.4983 40.8278 97.2831 40.8324 97.0688 40.8192C96.8535 40.8031 96.6459 40.7704 96.4458 40.7209C96.2457 40.6715 96.0637 40.6036 95.9 40.5174L96.1224 39.6935C96.1419 39.6332 96.1744 39.5786 96.2197 39.5295C96.267 39.4766 96.324 39.4398 96.3909 39.4191C96.4781 39.392 96.5738 39.3926 96.6781 39.4208C96.7853 39.4481 96.9045 39.478 97.0357 39.5106C97.1698 39.5423 97.318 39.5632 97.4805 39.5734C97.6429 39.5835 97.8229 39.558 98.0205 39.4967C98.2879 39.4138 98.4777 39.2912 98.5899 39.129C98.7011 38.9639 98.7171 38.7534 98.6378 38.4977C98.5918 38.3495 98.5137 38.2415 98.4035 38.1737C98.2933 38.106 98.1619 38.0623 98.0093 38.0427C97.8596 38.0222 97.6932 38.0149 97.5103 38.0207C97.3273 38.0264 97.1386 38.0292 96.9442 38.029C96.7489 38.0258 96.5543 38.0097 96.3605 37.9806C96.1658 37.9486 95.9809 37.8864 95.8058 37.7942C95.6327 37.6982 95.4743 37.5625 95.3307 37.3872C95.1863 37.209 95.0681 36.9717 94.9762 36.6753C94.9023 36.437 94.8781 36.1896 94.9037 35.9332C94.9294 35.6767 95.0077 35.431 95.1387 35.1961C95.2697 34.9611 95.4541 34.7494 95.692 34.561C95.9289 34.3697 96.2218 34.2199 96.5705 34.1118C96.7652 34.0514 96.9591 34.0088 97.1521 33.984C97.3471 33.9554 97.5369 33.9459 97.7215 33.9555C97.9051 33.9623 98.0812 33.9857 98.2498 34.0259C98.4203 34.0622 98.5785 34.1151 98.7243 34.1845L98.5703 34.9825Z" fill="#BB932C"/>
<path d="M109.159 33.1311L107.296 33.3059L107.803 38.7089L106.267 38.853L105.76 33.45L103.897 33.6248L103.782 32.407L109.045 31.9133L109.159 33.1311Z" fill="#BB932C"/>
<path d="M126.403 37.67C126.273 38.1329 126.072 38.5379 125.801 38.8851C125.533 39.2303 125.214 39.5056 124.843 39.7112C124.474 39.9138 124.061 40.0381 123.606 40.0839C123.154 40.1277 122.679 40.0796 122.181 39.9397L119.694 39.2407L121.493 32.8388L123.98 33.5378C124.478 33.6777 124.908 33.8854 125.27 34.161C125.635 34.4373 125.922 34.7583 126.133 35.124C126.343 35.4896 126.472 35.8909 126.52 36.3279C126.571 36.7628 126.532 37.2101 126.403 37.67ZM124.883 37.2428C124.972 36.9264 125.011 36.6293 125.001 36.3514C124.99 36.0735 124.932 35.8249 124.826 35.6055C124.724 35.384 124.575 35.1951 124.379 35.0388C124.183 34.8796 123.943 34.76 123.659 34.6802L122.666 34.4011L121.509 38.5182L122.502 38.7972C122.786 38.8771 123.053 38.9014 123.302 38.8703C123.552 38.8362 123.777 38.7526 123.979 38.6197C124.185 38.4846 124.364 38.3012 124.518 38.0694C124.671 37.8376 124.793 37.5621 124.883 37.2428Z" fill="#BB932C"/>
<path d="M133.962 38.7071L133.208 40.0631L135.034 41.0796L134.479 42.0766L132.653 41.0601L131.883 42.444L134.268 43.7712L133.691 44.8082L129.95 42.7263L133.184 36.9156L136.924 38.9975L136.347 40.0344L133.962 38.7071Z" fill="#BB932C"/>
<path d="M145.343 50.1028C145.087 50.3136 144.884 50.536 144.734 50.7701C144.586 51.0022 144.492 51.2373 144.452 51.4755C144.413 51.716 144.43 51.9565 144.502 52.1969C144.578 52.4377 144.71 52.6733 144.9 52.9035C145.088 53.1313 145.291 53.3046 145.511 53.4232C145.733 53.5398 145.965 53.6012 146.207 53.6073C146.45 53.6158 146.7 53.5697 146.956 53.4692C147.215 53.3667 147.472 53.2101 147.728 52.9993C147.982 52.7904 148.182 52.57 148.33 52.3379C148.48 52.1038 148.575 51.8666 148.613 51.626C148.654 51.3878 148.638 51.1485 148.566 50.9081C148.494 50.6677 148.365 50.4336 148.177 50.2057C147.988 49.9755 147.781 49.8009 147.557 49.6819C147.334 49.5652 147.102 49.5027 146.858 49.4942C146.617 49.4881 146.367 49.5363 146.108 49.6387C145.852 49.7393 145.597 49.894 145.343 50.1028ZM145.439 57.4141L144.632 56.4345C144.516 56.2935 144.431 56.1512 144.375 56.0075C144.32 55.8681 144.302 55.7096 144.321 55.5321L144.511 54.3054C144.302 54.1425 144.103 53.9459 143.913 53.7157C143.585 53.3164 143.352 52.8971 143.215 52.458C143.078 52.0189 143.03 51.5852 143.072 51.1569C143.118 50.729 143.247 50.319 143.46 49.9268C143.675 49.5369 143.969 49.1892 144.34 48.8837C144.711 48.5781 145.108 48.3572 145.532 48.2211C145.958 48.0873 146.384 48.04 146.811 48.0791C147.239 48.1207 147.655 48.2507 148.06 48.4694C148.465 48.688 148.831 48.997 149.16 49.3964C149.489 49.7957 149.72 50.2147 149.852 50.6534C149.989 51.0925 150.036 51.5251 149.992 51.951C149.949 52.377 149.819 52.7849 149.604 53.1747C149.391 53.5669 149.1 53.9149 148.732 54.2185C148.511 54.4003 148.279 54.5518 148.036 54.6731C147.797 54.7947 147.553 54.8856 147.302 54.9457C147.054 55.0081 146.802 55.0387 146.545 55.0376C146.289 55.0388 146.037 55.0078 145.788 54.9448L145.439 57.4141Z" fill="#BB932C"/>
<path d="M151.072 62.4711C151.157 62.6593 151.264 62.8129 151.392 62.9318C151.524 63.0522 151.672 63.1371 151.835 63.1865C151.998 63.2358 152.174 63.2489 152.364 63.2257C152.558 63.204 152.762 63.1445 152.975 63.0472L156.558 61.4119L157.199 62.8153L153.616 64.4507C153.245 64.6199 152.876 64.7144 152.511 64.7341C152.146 64.7566 151.801 64.7069 151.474 64.585C151.148 64.4631 150.849 64.27 150.578 64.0058C150.307 63.7415 150.08 63.4087 149.896 63.0074C149.712 62.6032 149.609 62.2122 149.587 61.8342C149.565 61.4563 149.615 61.104 149.737 60.7775C149.859 60.4509 150.047 60.1574 150.303 59.8969C150.559 59.6364 150.872 59.4215 151.243 59.2522L154.826 57.6168L155.467 59.0202L151.888 60.6537C151.675 60.751 151.496 60.8645 151.351 60.9941C151.21 61.1253 151.103 61.2692 151.031 61.426C150.962 61.5814 150.928 61.7471 150.932 61.9228C150.939 62.1001 150.986 62.2828 151.072 62.4711Z" fill="#BB932C"/>
<path d="M155.942 73.5237L157.623 72.59C157.728 72.5243 157.853 72.452 157.996 72.3732C158.143 72.2939 158.301 72.2123 158.471 72.1286C158.28 72.1171 158.103 72.1001 157.938 72.0777C157.773 72.0553 157.629 72.0321 157.507 72.008L155.615 71.7324L155.942 73.5237ZM153.883 76.3921L153.668 75.2158C153.644 75.0841 153.654 74.9724 153.699 74.8806C153.747 74.7883 153.815 74.7124 153.903 74.653L154.973 74.0583L154.518 71.5711L153.307 71.3936C153.217 71.376 153.13 71.3301 153.045 71.2558C152.964 71.1841 152.912 71.0853 152.889 70.9596L152.672 69.7744L159.677 71.11L159.961 72.6634L153.883 76.3921Z" fill="#BB932C"/>
<path d="M155.187 84.7544L153.956 84.7056L154.114 80.7015L160.759 80.9647L160.698 82.5062L155.284 82.2917L155.187 84.7544Z" fill="#BB932C"/>
<path d="M152.991 90.731L153.32 89.2144L159.819 90.6223L159.491 92.1389L152.991 90.731Z" fill="#BB932C"/>
<path d="M152.432 102.169C151.992 101.976 151.619 101.72 151.313 101.403C151.008 101.09 150.78 100.736 150.628 100.34C150.479 99.9454 150.413 99.5195 150.431 99.0622C150.451 98.6089 150.565 98.1454 150.773 97.6718L151.812 95.3066L157.9 97.9804L156.861 100.346C156.653 100.819 156.388 101.216 156.065 101.536C155.74 101.859 155.382 102.099 154.991 102.256C154.599 102.413 154.184 102.485 153.745 102.471C153.307 102.462 152.869 102.361 152.432 102.169ZM153.067 100.723C153.368 100.855 153.656 100.935 153.933 100.964C154.21 100.992 154.464 100.969 154.696 100.895C154.93 100.825 155.137 100.704 155.32 100.531C155.504 100.36 155.656 100.139 155.775 99.8685L156.19 98.9241L152.274 97.2045L151.859 98.149C151.741 98.4192 151.679 98.6798 151.676 98.9307C151.675 99.1828 151.726 99.418 151.829 99.6362C151.934 99.8585 152.091 100.062 152.299 100.246C152.507 100.431 152.763 100.59 153.067 100.723Z" fill="#BB932C"/>
<path d="M146.811 109.332L148.627 109.963C148.746 109.998 148.883 110.043 149.037 110.098C149.193 110.154 149.36 110.218 149.536 110.289C149.417 110.139 149.311 109.995 149.218 109.857C149.125 109.719 149.047 109.597 148.984 109.49L147.929 107.894L146.811 109.332ZM143.299 109.706L144.033 108.762C144.116 108.656 144.206 108.59 144.304 108.562C144.405 108.536 144.507 108.537 144.61 108.563L145.766 108.965L147.319 106.969L146.645 105.947C146.598 105.869 146.574 105.773 146.573 105.66C146.572 105.552 146.611 105.447 146.69 105.346L147.43 104.395L151.098 110.51L150.129 111.756L143.299 109.706Z" fill="#BB932C"/>
<path d="M137.579 119.139C137.283 118.759 137.076 118.358 136.957 117.933C136.838 117.513 136.805 117.093 136.859 116.673C136.915 116.255 137.059 115.849 137.292 115.455C137.525 115.065 137.845 114.711 138.253 114.393L140.29 112.804L144.38 118.047L142.343 119.636C141.935 119.954 141.513 120.177 141.077 120.305C140.638 120.436 140.209 120.477 139.79 120.429C139.371 120.382 138.971 120.248 138.591 120.028C138.21 119.812 137.873 119.515 137.579 119.139ZM138.824 118.167C139.026 118.426 139.242 118.634 139.472 118.79C139.702 118.947 139.937 119.047 140.176 119.092C140.415 119.141 140.656 119.133 140.898 119.067C141.142 119.004 141.381 118.882 141.613 118.7L142.426 118.066L139.796 114.694L138.983 115.328C138.75 115.51 138.572 115.71 138.45 115.929C138.329 116.151 138.263 116.382 138.25 116.623C138.237 116.869 138.279 117.122 138.374 117.383C138.47 117.644 138.62 117.906 138.824 118.167Z" fill="#BB932C"/>
<path d="M132.264 124.613L131.619 123.201L129.717 124.07L129.243 123.032L131.144 122.164L130.486 120.723L128.004 121.858L127.51 120.778L131.404 118.999L134.168 125.047L130.274 126.827L129.781 125.747L132.264 124.613Z" fill="#BB932C"/>
<path d="M118.877 73.8489C119.341 73.8489 119.715 74.2136 119.715 74.6542C119.715 75.105 119.346 75.4697 118.877 75.4697C118.403 75.4697 118.029 75.105 118.029 74.6542C118.029 74.2085 118.403 73.8489 118.877 73.8489ZM111.075 68.1356C111.67 68.1356 112.144 68.5965 112.144 69.1638C112.144 69.7361 111.665 70.192 111.075 70.192C110.49 70.192 110.01 69.7361 110.01 69.1638C110.005 68.5965 110.49 68.1356 111.075 68.1356ZM103.251 73.8489C103.71 73.8489 104.094 74.2136 104.094 74.6542C104.094 75.105 103.71 75.4697 103.251 75.4697C102.782 75.4697 102.403 75.105 102.403 74.6542C102.403 74.2085 102.782 73.8489 103.251 73.8489ZM96.3184 74.9227C96.3184 74.482 96.6977 74.1173 97.1665 74.1173C97.6301 74.1173 98.0095 74.482 98.0095 74.9227C98.0095 75.3735 97.6301 75.7381 97.1665 75.7381C96.6924 75.7381 96.3184 75.3735 96.3184 74.9227ZM119.683 90.067C119.488 90.5026 119.267 90.5938 118.819 90.4368C118.218 90.2139 115.31 89.0844 110.99 89.049C106.67 89.0844 103.762 90.1886 103.157 90.4114C102.714 90.5583 102.493 90.5077 102.308 90.067C102.055 89.4795 102.156 89.2465 102.588 89.0439C103.715 88.5425 106.818 87.2053 110.79 87.2053H110.959H110.969H110.996H111.011H111.033H111.048H111.212C115.173 87.2053 118.271 88.5475 119.414 89.0439C119.83 89.2465 119.931 89.4744 119.683 90.067ZM124.393 77.1969L120.6 87.3167C120.278 88.1373 119.957 88.036 119.383 87.7219C118.829 87.4028 115.453 86.0353 111.285 86.0353H110.822C106.66 86.0353 103.288 87.4028 102.719 87.7219C102.166 88.036 101.834 88.1879 101.513 87.3724L97.7144 77.2222C97.7144 77.2222 97.4036 76.4321 97.7619 76.3156C98.0938 76.2143 98.3308 76.6549 98.4625 76.9082C98.7734 77.4754 100.396 80.484 101.128 81.2742C101.782 81.963 102.366 81.9833 102.714 81.9022C103.473 81.7402 103.805 80.9146 103.567 78.6556C103.33 76.4017 103.214 76.118 103.615 76.042C103.968 75.9762 104.084 76.5384 104.179 76.8069C104.273 77.0753 105.053 80.2814 106.381 80.7576C107.424 81.1324 108.261 80.793 108.815 79.5977C109.431 78.2504 110.042 75.723 110.311 73.4133C110.553 71.281 110.585 70.4959 110.99 70.4959H111.106C111.517 70.4959 111.544 71.3924 111.796 73.5247C112.07 75.8394 112.681 78.3112 113.293 79.6585C113.835 80.8589 114.678 81.1628 115.727 80.793C117.049 80.3169 117.839 77.0956 117.929 76.8271C118.029 76.5536 118.139 75.9863 118.492 76.0522C118.903 76.1282 118.772 76.4118 118.545 78.6657C118.308 80.9247 118.64 81.7452 119.398 81.9124C119.746 81.9934 120.326 81.9681 120.984 81.2843C121.716 80.4942 123.334 77.4856 123.645 76.9183C123.782 76.66 124.019 76.2193 124.345 76.3257C124.714 76.4371 124.393 77.1969 124.393 77.1969ZM124.967 75.7381C124.493 75.7381 124.114 75.3735 124.114 74.9227C124.114 74.482 124.493 74.1173 124.967 74.1173C125.431 74.1173 125.81 74.482 125.81 74.9227C125.81 75.3735 125.431 75.7381 124.967 75.7381Z" fill="#FCFCFC"/>
<path opacity="0.1" d="M178.99 468.035L129.421 385.935L180.721 370.736L218.225 335.983L265.34 414.947L242.91 447.18L178.99 468.035Z" fill="url(#paint2_linear_1033_295)"/>
<path d="M259.456 407.95L259.49 407.997C259.562 408.14 259.578 408.328 259.476 408.526L259.46 408.567L252.32 422.777L249.633 428.105L247.753 431.83L246.878 433.577L246.156 435.013L244.276 438.738L241.478 444.283L233.573 460.013C233.515 460.147 233.405 460.256 233.282 460.326C233.159 460.407 233.004 460.45 232.863 460.442L228.13 460.381L203.28 460.078L195.986 459.989L192.429 459.946L187.049 459.881L175.271 459.739L175.221 459.733C175.002 459.732 174.834 459.627 174.744 459.505L174.71 459.458C174.684 459.391 174.659 459.333 174.654 459.274C174.651 459.235 174.647 459.195 174.654 459.155C174.667 459.074 174.69 458.992 174.722 458.91L181.59 445.241L187.32 433.849L200.615 407.414C200.752 407.154 201.035 406.98 201.324 406.985L230.908 407.349L243.652 407.507L258.947 407.696C259.037 407.698 259.118 407.721 259.2 407.743C259.231 407.761 259.272 407.777 259.304 407.794C259.378 407.848 259.412 407.894 259.456 407.95Z" fill="url(#paint3_linear_1033_295)"/>
<g filter="url(#filter0_d_1033_295)">
<path d="M241.49 444.302L233.585 460.032C233.527 460.166 233.417 460.275 233.293 460.345C233.171 460.426 233.015 460.469 232.875 460.461L228.142 460.4L203.292 460.097L195.998 460.008L192.441 459.965L187.06 459.9L184.929 457.226C183.659 455.644 183.927 453.321 185.521 452.06L220.719 424.07C222.302 422.8 224.615 423.069 225.886 424.662L230.094 429.954L232.917 433.503L234.902 435.99L236.588 438.115L238.564 440.602L241.49 444.302Z" fill="#FCFCFC"/>
</g>
<path opacity="0.5" d="M225.245 429.713L190.661 457.212C190.522 457.323 190.311 457.302 190.199 457.162L188.76 455.355C188.648 455.215 188.67 455.004 188.81 454.892L223.394 427.394C223.533 427.283 223.744 427.304 223.856 427.444L225.295 429.251C225.407 429.391 225.384 429.592 225.245 429.713Z" fill="#4DCBD3"/>
<path d="M212.594 446.378C212.705 446.518 212.683 446.729 212.534 446.841L195.978 460.009L192.421 459.967L192.175 459.649C192.054 459.511 192.075 459.3 192.225 459.187L210.691 444.511C210.83 444.39 211.032 444.422 211.154 444.571L212.594 446.378Z" fill="#4DCBD3"/>
<g filter="url(#filter1_d_1033_295)">
<path d="M252.311 422.788L249.624 428.116L247.744 431.84L246.869 433.588L246.146 435.024L244.267 438.749L241.469 444.294L233.564 460.024C233.506 460.158 233.396 460.267 233.273 460.337C233.15 460.417 232.994 460.461 232.854 460.453L228.121 460.392L220.537 436.886C219.913 434.959 220.969 432.888 222.916 432.263L230.074 429.955L252.311 422.788Z" fill="#FCFCFC"/>
</g>
<path d="M249.624 428.116L247.744 431.84L234.893 435.991L225.925 438.892C225.75 438.947 225.562 438.843 225.498 438.67L224.79 436.461C224.736 436.297 224.83 436.109 225.004 436.055L232.897 433.505L249.624 428.116Z" fill="#4DCBD3"/>
<g opacity="0.5">
<path opacity="0.5" d="M246.157 435.033L244.278 438.758L238.554 440.603L227.61 444.132C227.435 444.187 227.248 444.093 227.193 443.919L226.486 441.71C226.431 441.536 226.524 441.349 226.699 441.294L236.577 438.106L246.157 435.033Z" fill="#4DCBD3"/>
</g>
<g filter="url(#filter2_d_1033_295)">
<path d="M188.459 463.084L235.542 464.044L255.152 423.529C255.152 423.529 259.982 431.903 260.519 432.355C261.055 432.806 240.144 471.611 240.144 471.611L193.929 472.07L188.459 463.084Z" fill="#606060"/>
</g>
<path d="M259.49 407.997L290.558 459.096C290.906 459.673 291.031 460.319 290.975 460.931C290.883 461.835 290.389 462.684 289.556 463.183L209.91 511.615C209.078 512.125 208.096 512.169 207.261 511.833C206.694 511.603 206.17 511.19 205.822 510.613L174.754 459.514C174.845 459.646 175.013 459.741 175.232 459.742L175.282 459.748L203.28 460.078L232.863 460.442C233.003 460.45 233.159 460.407 233.282 460.326C233.404 460.246 233.514 460.137 233.573 460.013L246.868 433.578L259.449 408.558L259.465 408.517C259.578 408.328 259.562 408.14 259.49 407.997Z" fill="#FFDD76"/>
<path opacity="0.8" d="M249.777 487.455L208.006 512.854C207.428 513.202 206.81 512.728 207.09 512.156L219.697 487.095L232.992 460.66C233.119 460.4 233.412 460.226 233.701 460.231L263.285 460.594L291.333 460.93C291.97 460.935 292.116 461.709 291.54 462.067L249.777 487.455Z" fill="url(#paint4_linear_1033_295)"/>
<path d="M173.475 336.244C173.475 336.244 175.142 341.367 180.154 341.635C185.165 341.904 186.476 340.636 186.476 340.636C186.476 340.636 183.755 349.77 176.307 356.827C176.307 356.827 169.266 361.599 160.551 352.238C160.559 352.244 170.045 346.257 173.475 336.244Z" fill="url(#paint5_linear_1033_295)"/>
<path d="M43.8643 255.254C43.8643 255.254 41.0881 257.654 43.2338 266.603C43.2338 266.603 48.0237 272.156 56.8609 269.003C56.8609 269.003 53.9626 262.19 56.4847 257.776C56.4847 257.776 50.5559 259.536 43.8643 255.254Z" fill="url(#paint6_linear_1033_295)"/>
<rect x="245.81" y="80.339" width="241.017" height="83.3898" rx="8" fill="#F6D36C"/>
<rect x="324.115" y="36.6102" width="241.017" height="21.3559" rx="4" fill="#4DCBD3"/>
<rect x="525.471" y="301.017" width="95.5932" height="33.5593" rx="4" fill="#4DCBD3"/>
<rect x="324.115" y="202.373" width="241.017" height="21.3559" rx="4" fill="#E9E9EA"/>
<rect x="324.115" y="241.017" width="129.153" height="21.3559" rx="4" fill="#E9E9EA"/>
<path d="M574.853 423.149C574.853 423.149 580.012 422.58 585.369 429.419C585.369 429.419 586.128 421.709 594.854 418.951C594.854 418.951 589.487 412.114 585.306 412.378C585.304 412.368 577.909 412.585 574.853 423.149Z" fill="#FCFCFC"/>
<path d="M642.662 189.119C642.662 189.119 642.707 194.309 635.361 198.947C635.361 198.947 642.954 200.482 644.816 209.442C644.816 209.442 652.161 204.793 652.321 200.607C652.331 200.607 652.863 193.227 642.662 189.119Z" fill="#FCFCFC"/>
<defs>
<filter id="filter0_d_1033_295" x="181.127" y="419.268" width="73.3627" height="53.1938" filterUnits="userSpaceOnUse" color-interpolation-filters="sRGB">
<feFlood flood-opacity="0" result="BackgroundImageFix"/>
<feColorMatrix in="SourceAlpha" type="matrix" values="0 0 0 0 0 0 0 0 0 0 0 0 0 0 0 0 0 0 127 0" result="hardAlpha"/>
<feOffset dx="5" dy="4"/>
<feGaussianBlur stdDeviation="4"/>
<feColorMatrix type="matrix" values="0 0 0 0 0.675 0 0 0 0 0.524587 0 0 0 0 0.137812 0 0 0 0.1 0"/>
<feBlend mode="normal" in2="BackgroundImageFix" result="effect1_dropShadow_1033_295"/>
<feBlend mode="normal" in="SourceGraphic" in2="effect1_dropShadow_1033_295" result="shape"/>
</filter>
<filter id="filter1_d_1033_295" x="212.358" y="421.788" width="43.9534" height="49.6654" filterUnits="userSpaceOnUse" color-interpolation-filters="sRGB">
<feFlood flood-opacity="0" result="BackgroundImageFix"/>
<feColorMatrix in="SourceAlpha" type="matrix" values="0 0 0 0 0 0 0 0 0 0 0 0 0 0 0 0 0 0 127 0" result="hardAlpha"/>
<feOffset dx="-2" dy="5"/>
<feGaussianBlur stdDeviation="3"/>
<feColorMatrix type="matrix" values="0 0 0 0 0.5 0 0 0 0 0.380417 0 0 0 0 0.0729167 0 0 0 0.1 0"/>
<feBlend mode="normal" in2="BackgroundImageFix" result="effect1_dropShadow_1033_295"/>
<feBlend mode="normal" in="SourceGraphic" in2="effect1_dropShadow_1033_295" result="shape"/>
</filter>
<filter id="filter2_d_1033_295" x="176.459" y="409.529" width="88.0703" height="64.5405" filterUnits="userSpaceOnUse" color-interpolation-filters="sRGB">
<feFlood flood-opacity="0" result="BackgroundImageFix"/>
<feColorMatrix in="SourceAlpha" type="matrix" values="0 0 0 0 0 0 0 0 0 0 0 0 0 0 0 0 0 0 127 0" result="hardAlpha"/>
<feOffset dx="-4" dy="-6"/>
<feGaussianBlur stdDeviation="4"/>
<feColorMatrix type="matrix" values="0 0 0 0 0.479167 0 0 0 0 0.362889 0 0 0 0 0.0638889 0 0 0 0.15 0"/>
<feBlend mode="normal" in2="BackgroundImageFix" result="effect1_dropShadow_1033_295"/>
<feBlend mode="normal" in="SourceGraphic" in2="effect1_dropShadow_1033_295" result="shape"/>
</filter>
<linearGradient id="paint0_linear_1033_295" x1="391.776" y1="400.678" x2="391.299" y2="540" gradientUnits="userSpaceOnUse">
<stop offset="0.137749" stop-color="#D1D4DB"/>
<stop offset="0.620358" stop-color="#E6E8EB"/>
<stop offset="0.860326" stop-color="#F5F6F7"/>
</linearGradient>
<linearGradient id="paint1_linear_1033_295" x1="607.335" y1="248.136" x2="30.2166" y2="381.356" gradientUnits="userSpaceOnUse">
<stop stop-color="#4DCBD3"/>
<stop offset="1" stop-color="#4DCBD3" stop-opacity="0"/>
</linearGradient>
<linearGradient id="paint2_linear_1033_295" x1="231.405" y1="457.543" x2="181.686" y2="374.142" gradientUnits="userSpaceOnUse">
<stop stop-color="#4DCBD3"/>
<stop offset="1" stop-color="#4DCBD3" stop-opacity="0"/>
</linearGradient>
<linearGradient id="paint3_linear_1033_295" x1="201.716" y1="408.027" x2="233.858" y2="461.733" gradientUnits="userSpaceOnUse">
<stop offset="0.0112" stop-color="#FFDD76"/>
<stop offset="1" stop-color="#E8AE46"/>
</linearGradient>
<linearGradient id="paint4_linear_1033_295" x1="224.206" y1="445.418" x2="245.389" y2="480.254" gradientUnits="userSpaceOnUse">
<stop offset="0.0112" stop-color="#E8AE46"/>
<stop offset="1" stop-color="#E8AE46" stop-opacity="0"/>
</linearGradient>
<linearGradient id="paint5_linear_1033_295" x1="178.183" y1="358.983" x2="165.979" y2="332.542" gradientUnits="userSpaceOnUse">
<stop stop-color="#FCFCFC"/>
<stop offset="1" stop-color="#FCFCFC" stop-opacity="0.6"/>
</linearGradient>
<linearGradient id="paint6_linear_1033_295" x1="56.6573" y1="255.254" x2="37.8438" y2="269.492" gradientUnits="userSpaceOnUse">
<stop stop-color="#FCFCFC"/>
<stop offset="1" stop-color="#FCFCFC" stop-opacity="0.5"/>
</linearGradient>
</defs>
</svg>
